<svg xmlns="http://www.w3.org/2000/svg" xmlns:xlink="http://www.w3.org/1999/xlink" width="300" height="300" viewBox="0 0 300 300"><defs><clipPath id="a"><path d="M30.53,150c0,34.71,53.49,62.84,119.47,62.84h0c66,0,119.47-28.13,119.47-62.84h0c0-34.71-53.49-62.84-119.47-62.84h0C84,87.16,30.53,115.29,30.53,150" style="fill:none"/></clipPath><radialGradient id="b" cx="-24.2" cy="206.13" r="0.35" gradientTransform="matrix(453.82, 0, 0, -453.82, 11085.24, 93657.32)" gradientUnits="userSpaceOnUse"><stop offset="0" stop-color="#aeb2d5"/><stop offset="0.3" stop-color="#aeb2d5"/><stop offset="0.75" stop-color="#484c89"/><stop offset="1" stop-color="#484c89"/></radialGradient><clipPath id="c"><rect x="25.56" y="80" width="248.89" height="140" style="fill:none"/></clipPath></defs><title>php</title><g style="clip-path:url(#a)"><path d="M30.53,150c0,34.71,53.49,62.84,119.47,62.84h0c66,0,119.47-28.13,119.47-62.84h0c0-34.71-53.49-62.84-119.47-62.84h0C84,87.16,30.53,115.29,30.53,150" style="fill:url(#b)"/></g><g style="clip-path:url(#c)"><path d="M150,208.18c63.4,0,114.8-26.05,114.8-58.18S213.4,91.82,150,91.82,35.2,117.87,35.2,150,86.6,208.18,150,208.18" style="fill:#777bb3"/></g><g style="clip-path:url(#c)"><path d="M95.44,157.21c5.21,0,9.11-1,11.57-2.85s4.12-5.13,5-9.66c.82-4.24.51-7.2-.93-8.79s-4.66-2.46-9.46-2.46H93.29l-4.62,23.76ZM68.19,186.49a1.29,1.29,0,0,1-1-.47,1.35,1.35,0,0,1-.27-1.08l12.24-63a1.3,1.3,0,0,1,1.27-1h26.38c8.29,0,14.47,2.25,18.34,6.69s5.11,10.7,3.58,18.54a28.66,28.66,0,0,1-9,16.14,25.73,25.73,0,0,1-9.6,5.76,43.76,43.76,0,0,1-13.2,1.69H86.23l-3,15.7a1.3,1.3,0,0,1-1.27,1.05Z"/><path d="M94.36,134.74h7.26c5.8,0,7.81,1.28,8.5,2,1.13,1.26,1.35,3.92.62,7.68-.82,4.21-2.34,7.2-4.52,8.88s-5.86,2.59-10.78,2.59h-5.2Zm12.45-15.12H80.43a2.58,2.58,0,0,0-2.54,2.1l-12.24,63a2.58,2.58,0,0,0,2.54,3.08H81.91a2.6,2.6,0,0,0,2.55-2.09L87.3,171h9.62a44.78,44.78,0,0,0,13.6-1.76,27,27,0,0,0,10.09-6A30,30,0,0,0,130,146.4c1.6-8.25.3-14.86-3.88-19.64s-10.63-7.14-19.32-7.14M87.1,158.51h8.34q8.3,0,12.36-3.13T113.28,145q1.36-7-1.24-9.91t-10.42-2.89h-9.4L87.1,158.51m19.71-36.3q11.91,0,17.37,6.25t3.28,17.45a28.4,28.4,0,0,1-3,8.43,27.88,27.88,0,0,1-5.58,7,24.12,24.12,0,0,1-9.13,5.48,42.1,42.1,0,0,1-12.8,1.64H85.16l-3.25,16.74H68.19l12.24-63h26.38" style="fill:#fff"/><path d="M160.19,169.74a1.29,1.29,0,0,1-1-.47,1.26,1.26,0,0,1-.27-1.07l5.41-27.87c.52-2.65.39-4.55-.36-5.35-.45-.49-1.82-1.32-5.87-1.32h-9.81l-6.81,35a1.3,1.3,0,0,1-1.27,1.05H126.59a1.31,1.31,0,0,1-1-.47,1.33,1.33,0,0,1-.27-1.07l12.24-63a1.3,1.3,0,0,1,1.28-1h13.61a1.29,1.29,0,0,1,1.27,1.55l-3,15.2h10.56c8,0,13.49,1.41,16.66,4.33s4.25,7.73,3,14.14l-5.69,29.3a1.3,1.3,0,0,1-1.27,1.05Z"/><path d="M152.45,102.88H138.84a2.59,2.59,0,0,0-2.55,2.09l-12.24,63a2.58,2.58,0,0,0,2.54,3.09h13.62a2.59,2.59,0,0,0,2.54-2.1l6.6-34h8.75c4,0,4.89.86,4.92.9.25.27.57,1.49,0,4.23L157.65,168a2.58,2.58,0,0,0,2.54,3.09H174a2.58,2.58,0,0,0,2.54-2.1l5.7-29.3c1.33-6.88.19-12-3.4-15.34-3.43-3.15-9.16-4.68-17.54-4.68h-9L155,106a2.58,2.58,0,0,0-2.54-3.08m0,2.59-3.26,16.74h12.13q11.44,0,15.79,4t2.6,12.94L174,168.45H160.19l5.41-27.87q.93-4.76-.68-6.48c-1.07-1.16-3.34-1.73-6.82-1.73H147.22l-7,36.08H126.59l12.25-63h13.61" style="fill:#fff"/><path d="M202.52,157.21c5.21,0,9.11-1,11.57-2.85s4.12-5.13,5-9.66c.82-4.24.51-7.2-.93-8.79s-4.66-2.46-9.46-2.46h-8.33l-4.62,23.76Zm-27.25,29.28a1.31,1.31,0,0,1-1-.47,1.35,1.35,0,0,1-.27-1.08l12.24-63a1.3,1.3,0,0,1,1.27-1h26.38c8.3,0,14.47,2.25,18.35,6.69s5.1,10.7,3.58,18.54a28.75,28.75,0,0,1-9,16.14,25.73,25.73,0,0,1-9.6,5.76,43.76,43.76,0,0,1-13.2,1.69H193.31l-3.05,15.7a1.29,1.29,0,0,1-1.27,1.05Z"/><path d="M201.44,134.74h7.26c5.8,0,7.81,1.28,8.5,2,1.13,1.26,1.35,3.92.62,7.68-.82,4.21-2.34,7.2-4.52,8.88s-5.86,2.59-10.78,2.59h-5.2Zm12.45-15.12H187.51a2.59,2.59,0,0,0-2.54,2.1l-12.24,63a2.58,2.58,0,0,0,2.54,3.08H189a2.6,2.6,0,0,0,2.55-2.09L194.38,171H204a44.78,44.78,0,0,0,13.6-1.76,26.88,26.88,0,0,0,10.09-6,30,30,0,0,0,9.4-16.84c1.6-8.25.3-14.86-3.88-19.64s-10.63-7.14-19.32-7.14m-19.71,38.89h8.34q8.29,0,12.36-3.13T220.36,145q1.37-7-1.24-9.91t-10.42-2.89h-9.4l-5.12,26.36m19.71-36.3q11.91,0,17.37,6.25t3.28,17.45a28.4,28.4,0,0,1-3,8.43,27.88,27.88,0,0,1-5.58,7,24.12,24.12,0,0,1-9.13,5.48,42.1,42.1,0,0,1-12.8,1.64H192.25L189,185.19H175.27l12.24-63h26.38" style="fill:#fff"/></g></svg>